<svg xmlns="http://www.w3.org/2000/svg" xmlns:xlink="http://www.w3.org/1999/xlink" width="500" zoomAndPan="magnify" viewBox="0 0 375 374.999991" height="500" preserveAspectRatio="xMidYMid meet" version="1.0"><defs><g/><clipPath id="8bf03cf7f6"><path d="M 58.039062 42.445312 L 316.789062 42.445312 L 316.789062 332.695312 L 58.039062 332.695312 Z M 58.039062 42.445312 " clip-rule="nonzero"/></clipPath><clipPath id="a56446b5b2"><path d="M 77.539062 42.445312 L 297.453125 42.445312 C 302.625 42.445312 307.585938 44.5 311.242188 48.15625 C 314.898438 51.816406 316.953125 56.773438 316.953125 61.945312 L 316.953125 313.042969 C 316.953125 318.214844 314.898438 323.175781 311.242188 326.832031 C 307.585938 330.488281 302.625 332.542969 297.453125 332.542969 L 77.539062 332.542969 C 72.367188 332.542969 67.40625 330.488281 63.75 326.832031 C 60.09375 323.175781 58.039062 318.214844 58.039062 313.042969 L 58.039062 61.945312 C 58.039062 56.773438 60.09375 51.816406 63.75 48.15625 C 67.40625 44.5 72.367188 42.445312 77.539062 42.445312 Z M 77.539062 42.445312 " clip-rule="nonzero"/></clipPath><clipPath id="e3f389c5ff"><path d="M 108.144531 68.101562 L 266 68.101562 L 266 279.601562 L 108.144531 279.601562 Z M 108.144531 68.101562 " clip-rule="nonzero"/></clipPath><clipPath id="56954d56df"><path d="M 131.25 153.15625 L 243.75 153.15625 L 243.75 265.65625 L 131.25 265.65625 Z M 131.25 153.15625 " clip-rule="nonzero"/></clipPath><clipPath id="4466da4a0a"><path d="M 148.5 153.15625 L 226.5 153.15625 C 231.074219 153.15625 235.460938 154.976562 238.699219 158.210938 C 241.933594 161.445312 243.75 165.832031 243.75 170.40625 L 243.75 248.40625 C 243.75 252.980469 241.933594 257.371094 238.699219 260.605469 C 235.460938 263.839844 231.074219 265.65625 226.5 265.65625 L 148.5 265.65625 C 143.925781 265.65625 139.539062 263.839844 136.300781 260.605469 C 133.066406 257.371094 131.25 252.980469 131.25 248.40625 L 131.25 170.40625 C 131.25 165.832031 133.066406 161.445312 136.300781 158.210938 C 139.539062 154.976562 143.925781 153.15625 148.5 153.15625 Z M 148.5 153.15625 " clip-rule="nonzero"/></clipPath></defs><g clip-path="url(#8bf03cf7f6)"><g clip-path="url(#a56446b5b2)"><path stroke-linecap="butt" transform="matrix(0.75, 0, 0, 0.75, 58.038454, 42.446556)" fill="none" stroke-linejoin="miter" d="M 26.000813 -0.00165748 L 319.219582 -0.00165748 C 326.115416 -0.00165748 332.729999 2.737926 337.605 7.612926 C 342.48 12.493135 345.219584 19.10251 345.219584 25.998344 L 345.219584 360.795241 C 345.219584 367.691075 342.48 374.305659 337.605 379.180659 C 332.729999 384.055659 326.115416 386.795243 319.219582 386.795243 L 26.000813 386.795243 C 19.104979 386.795243 12.490395 384.055659 7.615395 379.180659 C 2.740394 374.305659 0.000810948 367.691075 0.000810948 360.795241 L 0.000810948 25.998344 C 0.000810948 19.10251 2.740394 12.493135 7.615395 7.612926 C 12.490395 2.737926 19.104979 -0.00165748 26.000813 -0.00165748 Z M 26.000813 -0.00165748 " stroke="#ffcc00" stroke-width="8" stroke-opacity="1" stroke-miterlimit="4"/></g></g><g clip-path="url(#e3f389c5ff)"><path fill="#ffcc00" d="M 245.921875 143.371094 L 239.769531 143.371094 C 240.460938 132.40625 241.121094 102.957031 224.195312 83.886719 C 215.128906 73.675781 202.792969 68.804688 187.527344 68.804688 C 187.515625 68.804688 187.503906 68.804688 187.496094 68.804688 C 171.566406 68.804688 158.734375 73.855469 149.363281 84.40625 C 132.367188 103.546875 132.894531 134.597656 133.550781 143.371094 L 129.078125 143.371094 C 117.679688 143.371094 108.070312 152.613281 108.070312 164.007812 L 108.070312 258.984375 C 108.070312 270.382812 117.679688 279.34375 129.078125 279.34375 L 245.921875 279.34375 C 257.320312 279.34375 265.976562 270.382812 265.976562 258.984375 L 265.976562 164.007812 C 265.976562 152.613281 257.320312 143.371094 245.921875 143.371094 Z M 201.96875 246.449219 L 174.839844 246.449219 L 179.15625 216.167969 C 172.648438 213.035156 168.121094 206.238281 168.121094 198.535156 C 168.121094 187.828125 176.796875 179.042969 187.5 179.042969 C 198.203125 179.042969 206.878906 187.667969 206.878906 198.375 C 206.878906 205.558594 202.921875 212.164062 197.109375 215.503906 Z M 221.109375 143.371094 L 152.214844 143.371094 C 151.78125 138.984375 150.203125 110.902344 163.3125 96.195312 C 169.078125 89.722656 176.992188 86.351562 187.507812 86.351562 C 187.515625 86.351562 187.519531 86.351562 187.53125 86.351562 C 197.367188 86.351562 204.800781 89.546875 210.253906 95.671875 C 223.300781 110.320312 221.554688 138.984375 221.109375 143.371094 Z M 221.109375 143.371094 " fill-opacity="1" fill-rule="nonzero"/></g><g clip-path="url(#56954d56df)"><g clip-path="url(#4466da4a0a)"><path fill="#ffcc00" d="M 131.25 153.15625 L 243.75 153.15625 L 243.75 265.65625 L 131.25 265.65625 Z M 131.25 153.15625 " fill-opacity="1" fill-rule="nonzero"/></g></g><g fill="#000000" fill-opacity="1"><g transform="translate(162.087635, 244.912476)"><g><path d="M 38.90625 -77.40625 L 29.359375 -17.046875 L 53.484375 -17.046875 L 50.8125 0 L 6.5625 0 L 18.78125 -77.40625 Z M 38.90625 -77.40625 "/></g></g></g></svg>